<svg width="800" height="234" viewBox="0 0 800 234" fill="none" xmlns="http://www.w3.org/2000/svg">
<path d="M111.599 48.7159C115.15 48.7159 118.479 48.8638 121.586 49.1967C124.693 49.5297 127.838 49.9735 130.945 50.6024C134.052 51.2312 137.344 52.045 140.784 53.1177C142.56 53.6725 144.446 54.2644 146.407 54.8932C149.773 56.0029 153.509 54.6343 155.284 51.5641C157.688 47.4212 160.13 42.8715 162.201 36.1023C164.273 29.3331 165.05 23.0818 165.271 16.4236C165.382 13.2054 163.459 10.1723 160.389 9.06256C151.289 5.73346 142.929 3.44007 135.31 2.18241C126.358 0.739801 116.852 0 106.864 0C89.9967 0 74.9048 2.92222 61.5514 8.76664C48.235 14.6111 37.027 22.7119 27.9645 33.1431C18.9019 43.5743 11.9848 55.8919 7.17607 70.1701C2.36736 84.4482 0 99.9101 0 116.593C0 133.275 2.29338 148.663 6.88015 162.83C11.4669 176.997 18.2731 189.167 27.3356 199.376C36.3982 209.586 47.6432 217.538 61.0705 223.272C74.4979 229.005 90.0707 231.891 107.789 231.891C112.783 231.891 117.628 231.743 122.326 231.41C127.024 231.114 131.758 230.559 136.53 229.856C141.302 229.116 146.333 228.044 151.511 226.564C153.398 226.046 155.358 225.454 157.393 224.788C161.461 223.457 163.644 218.944 162.09 214.949C158.206 205.184 155.136 194.753 152.991 183.803C152.14 179.476 147.701 176.886 143.484 178.144C139.526 179.328 135.79 180.326 132.942 180.955C127.024 182.213 120.698 182.842 114.04 182.842C76.9393 182.842 58.4073 160.759 58.4073 116.593C58.4073 94.1026 63.031 77.1612 72.3155 65.8053C81.6 54.4493 94.6575 48.7899 111.525 48.7899L111.599 48.7159Z" fill="black"/>
<path d="M798.911 212.397C793.399 204.222 785.927 188.132 785.89 161.018C785.779 108.455 785.742 109.232 782.413 100.761C779.084 92.3274 774.35 85.4103 768.209 79.9728C762.069 74.5722 754.597 70.5403 745.867 67.951C737.101 65.3617 727.335 64.0671 716.497 64.0671C708.581 64.0671 699.667 64.8808 689.79 66.5454C681.616 67.914 673.404 69.8745 665.192 72.3898C662.455 73.2406 660.605 75.9409 660.938 78.7891C661.308 82.0812 661.419 87.1858 660.494 94.5099C660.013 98.3198 658.571 103.018 656.943 107.382C655.131 112.339 659.976 117.111 664.896 115.15C671.813 112.45 680.432 109.454 690.567 107.604C697.225 106.384 703.07 105.866 708.063 105.866C711.836 105.866 715.461 106.125 719.012 106.643C722.563 107.16 725.782 108.122 728.704 109.454C731.626 110.785 734.03 112.709 735.88 115.224C735.88 115.224 735.88 115.261 735.954 115.298C738.802 119.145 735.584 124.583 730.812 124.583H719.974C712.058 124.583 703.921 125.36 695.598 126.913C687.275 128.467 679.655 131.241 672.775 135.199C665.895 139.157 660.272 144.483 655.907 151.142C651.543 157.8 649.323 166.234 649.323 176.443C649.323 186.652 651.136 195.641 654.798 202.854C658.46 210.03 663.49 215.837 669.964 220.202C676.437 224.567 684.168 227.748 693.23 229.745C702.293 231.743 712.243 232.705 723.081 232.705C735.584 232.705 747.384 231.188 758.703 229.265C767.432 227.785 784.004 224.271 795.286 221.608C799.429 220.646 801.352 215.837 798.948 212.286L798.911 212.397ZM736.694 192.57C734.733 192.94 732.81 193.236 731.145 193.421C727.594 193.828 724.894 194.05 723.044 194.05C720.344 194.05 717.348 193.865 714.13 193.421C710.912 193.014 707.878 192.164 705.067 190.906C702.256 189.648 699.926 187.836 698.039 185.431C696.153 183.027 695.228 179.772 695.228 175.592C695.228 169.97 697.743 165.605 702.737 162.461C707.731 159.316 713.871 157.763 721.195 157.763H733.18C736.398 157.763 739.098 160.278 739.283 163.496C739.653 169.341 740.356 178.477 741.613 185.431C742.205 188.76 740.06 191.942 736.731 192.533L736.694 192.57Z" fill="black"/>
<path d="M468.257 166.196C466.667 163.2 467.296 159.575 469.848 157.319C470.255 156.949 470.699 156.542 471.18 156.135C473.473 154.063 475.655 151.363 477.727 147.96C479.798 144.557 481.574 140.488 483.016 135.753C484.459 131.019 485.199 125.47 485.199 119.071C485.199 102.203 478.911 89.0719 466.297 79.7134C453.72 70.355 434.818 65.6572 409.628 65.6572C400.27 65.6572 390.319 65.9162 379.814 66.8779C371.824 67.6177 360.875 68.9863 349.815 70.6509C345.044 71.3907 342.121 76.1994 343.86 80.6012C351.924 100.761 356.511 123.843 356.511 148.367C356.511 172.891 351.554 197.786 342.898 218.5C341.049 222.976 343.934 227.932 348.817 228.635C353.107 229.264 356.363 229.708 358.323 229.93C362.466 230.448 371.75 231.114 375.264 231.114C378.594 231.114 382.441 230.966 386.805 230.67C389.358 230.485 392.095 230.189 395.017 229.745C398.716 229.19 401.49 226.046 401.49 222.384V114.225C401.49 110.23 404.709 106.938 408.777 106.79C410.59 106.716 412.439 106.716 413.919 106.716C420.984 106.716 426.163 108.418 429.381 111.821C432.599 115.224 434.227 119.589 434.227 124.952C434.227 130.316 432.858 135.309 430.158 139.933C427.457 144.557 419.061 148.922 411.774 153.065L407.409 155.543L440.441 224.973C441.514 227.193 443.585 228.783 446.063 229.19C448.801 229.634 451.945 230.004 455.496 230.263C460.896 230.67 466.519 231.188 472.363 231.188C477.135 231.188 482.092 230.67 487.196 230.263C488.232 230.189 489.231 230.078 490.229 229.967C495.556 229.412 498.663 223.79 496.185 219.129L468.183 166.196H468.257Z" fill="black"/>
<path d="M313.084 87.3335C306.315 79.8245 297.918 74.0541 287.931 69.9852C277.943 65.9163 266.254 63.8818 252.938 63.8818C239.622 63.8818 228.266 65.9163 218.241 69.9852C208.254 74.0541 199.857 79.8245 193.088 87.3335C186.319 94.8425 181.214 103.831 177.774 114.373C174.334 124.878 172.596 136.53 172.596 149.218C172.596 161.905 174.297 173.113 177.774 183.434C181.214 193.754 186.319 202.594 193.088 209.992C199.857 217.39 208.254 223.05 218.241 227.008C228.229 230.966 239.807 232.963 252.938 232.963C266.07 232.963 277.943 230.966 287.931 227.008C297.918 223.05 306.315 217.39 313.084 209.992C319.853 202.594 324.958 193.754 328.398 183.434C331.838 173.113 333.576 161.72 333.576 149.218C333.576 136.715 331.838 124.915 328.398 114.373C324.958 103.868 319.853 94.8425 313.084 87.3335ZM273.394 179.513C268.918 186.615 262.075 190.129 252.938 190.129C243.802 190.129 236.995 186.615 232.631 179.513C228.266 172.448 226.046 162.349 226.046 149.218C226.046 136.086 228.229 125.692 232.631 118.59C236.995 111.525 243.765 107.974 252.938 107.974C262.112 107.974 268.918 111.525 273.394 118.59C277.869 125.655 280.126 135.864 280.126 149.218C280.126 162.571 277.869 172.448 273.394 179.513Z" fill="black"/>
<path d="M629.017 185.135L628.721 184.506C626.427 181.103 621.841 183.508 618.179 184.395C585.886 194.494 557.33 184.765 559.143 144.557C560.289 116.075 582.705 105.274 608.154 109.602C614.961 110.896 626.501 115.89 630.644 110.859C636.97 102.462 638.893 90.3297 639.448 80.3794C639.374 77.9381 639.411 75.5337 636.97 73.8322C617.365 61.9584 591.361 62.8461 569.093 65.1765C513.349 72.9814 493.152 133.608 509.391 182.472C525.778 234.739 591.842 241.878 636.97 224.788C642 222.754 641.778 219.24 639.078 215.689C632.235 207.44 630.755 195.825 629.017 185.098V185.135Z" fill="black"/>
</svg>
