<svg preserveAspectRatio="none" width="100%" height="100%" overflow="visible" style="display: block;" viewBox="0 0 126.038 11.0696" fill="none" xmlns="http://www.w3.org/2000/svg">
<title>Download on the</title>
<g id="Group">
<path id="Vector" d="M8.7362 5.4724C8.7362 7.33795 8.16235 8.74225 7.01627 9.68533C5.95473 10.5555 4.44613 10.9914 2.49211 10.9914C1.52323 10.9914 0.694149 10.9502 0 10.8677V0.674608C0.905482 0.531958 1.88087 0.459048 2.93428 0.459048C4.79564 0.459048 6.19857 0.853713 7.1447 1.64304C8.20461 2.5354 8.7362 3.81132 8.7362 5.4724ZM6.93987 5.51837C6.93987 4.30901 6.61149 3.38179 5.95473 2.73511C5.29797 2.09001 4.33884 1.76667 3.07572 1.76667C2.53926 1.76667 2.08245 1.80154 1.70367 1.87445V9.62352C1.91338 9.65522 2.29703 9.66948 2.85463 9.66948C4.15839 9.66948 5.16467 9.31602 5.87345 8.60911C6.58223 7.90221 6.93987 6.87196 6.93987 5.51837Z" fill="var(--fill-0, white)"/>
<path id="Vector_2" d="M18.2609 7.10232C18.2609 8.25145 17.9244 9.19294 17.2514 9.93155C16.5459 10.6908 15.6111 11.0696 14.4439 11.0696C13.319 11.0696 12.4233 10.7066 11.7551 9.97751C11.0886 9.25 10.7554 8.33228 10.7554 7.22595C10.7554 6.0689 11.0984 5.11949 11.7876 4.38247C12.4769 3.64544 13.4035 3.27614 14.5707 3.27614C15.6957 3.27614 16.5995 3.6391 17.2839 4.36662C17.9342 5.07352 18.2609 5.98648 18.2609 7.10232ZM16.4939 7.15621C16.4939 6.46674 16.3411 5.87553 16.0371 5.3826C15.6794 4.78664 15.1706 4.48866 14.509 4.48866C13.8246 4.48866 13.3044 4.78664 12.9467 5.3826C12.6411 5.87553 12.4899 6.47625 12.4899 7.18633C12.4899 7.8758 12.6427 8.46701 12.9467 8.95994C13.3157 9.5559 13.8294 9.85388 14.4927 9.85388C15.143 9.85388 15.6534 9.55115 16.0208 8.94409C16.3362 8.44165 16.4939 7.84569 16.4939 7.15621Z" fill="var(--fill-0, white)"/>
<path id="Vector_3" d="M31.0324 3.42738L28.6345 10.8991H27.0739L26.0807 7.65458C25.8287 6.84464 25.6239 6.03946 25.4645 5.24062H25.4337C25.2857 6.06165 25.0809 6.86525 24.8175 7.65458L23.7625 10.8991H22.184L19.9292 3.42738H21.6801L22.5465 6.97937C22.7562 7.81942 22.9285 8.61984 23.0667 9.37747H23.0976C23.2244 8.75298 23.4341 7.95731 23.73 6.99522L24.8175 3.42897H26.2058L27.2479 6.91914C27.4998 7.77028 27.7047 8.58973 27.8624 9.37906H27.9095C28.0249 8.61033 28.1989 7.79089 28.4297 6.91914L29.3596 3.42897H31.0324V3.42738Z" fill="var(--fill-0, white)"/>
<path id="Vector_4" d="M39.8632 10.9003H38.1596V6.62082C38.1596 5.3021 37.6459 4.64274 36.6152 4.64274C36.1096 4.64274 35.7016 4.82343 35.3846 5.18639C35.0709 5.54936 34.9116 5.97731 34.9116 6.46707V10.8987H33.2079V5.56362C33.2079 4.90743 33.1868 4.19577 33.1461 3.42546H34.6433L34.723 4.5936H34.7701C34.9685 4.23064 35.2643 3.93107 35.6528 3.69174C36.1145 3.41278 36.6315 3.27171 37.1972 3.27171C37.9125 3.27171 38.5075 3.49678 38.9805 3.94851C39.569 4.50167 39.8632 5.32746 39.8632 6.42428V10.9003V10.9003Z" fill="var(--fill-0, white)"/>
<path id="Vector_5" d="M44.5616 10.9H42.8595V0H44.5616V10.9Z" fill="var(--fill-0, white)"/>
<path id="Vector_6" d="M54.5921 7.10232C54.5921 8.25145 54.2556 9.19294 53.5826 9.93155C52.877 10.6908 51.9407 11.0696 50.7751 11.0696C49.6485 11.0696 48.7528 10.7066 48.0863 9.97751C47.4198 9.25 47.0865 8.33228 47.0865 7.22595C47.0865 6.0689 47.4295 5.11949 48.1188 4.38247C48.8081 3.64544 49.7347 3.27614 50.9003 3.27614C52.0268 3.27614 52.9291 3.6391 53.6151 4.36662C54.2653 5.07352 54.5921 5.98648 54.5921 7.10232ZM52.8234 7.15621C52.8234 6.46674 52.6706 5.87553 52.3666 5.3826C52.0106 4.78664 51.5001 4.48866 50.8401 4.48866C50.1541 4.48866 49.6339 4.78664 49.2779 5.3826C48.9722 5.87553 48.8211 6.47625 48.8211 7.18633C48.8211 7.8758 48.9739 8.46701 49.2779 8.95994C49.6469 9.5559 50.1606 9.85388 50.8239 9.85388C51.4741 9.85388 51.9829 9.55115 52.3503 8.94409C52.6673 8.44165 52.8234 7.84569 52.8234 7.15621Z" fill="var(--fill-0, white)"/>
<path id="Vector_7" d="M62.8373 10.9H61.3076L61.1808 10.0393H61.1336C60.6102 10.7256 59.864 11.0696 58.8951 11.0696C58.1717 11.0696 57.5865 10.8429 57.1459 10.3928C56.746 9.98385 56.5461 9.47507 56.5461 8.87118C56.5461 7.95822 56.9362 7.26241 57.7214 6.78057C58.505 6.29873 59.6072 6.06256 61.0263 6.07366V5.93418C61.0263 4.9499 60.4964 4.45855 59.4348 4.45855C58.6789 4.45855 58.0124 4.64399 57.4369 5.01171L57.0907 3.92123C57.8027 3.4917 58.6822 3.27614 59.7193 3.27614C61.7221 3.27614 62.7268 4.30639 62.7268 6.36688V9.11844C62.7268 9.86498 62.7641 10.4594 62.8373 10.9ZM61.0686 8.33228V7.17999C59.1894 7.14829 58.2498 7.65073 58.2498 8.68574C58.2498 9.07565 58.357 9.36729 58.5765 9.56224C58.796 9.7572 59.0756 9.85388 59.4088 9.85388C59.7827 9.85388 60.1322 9.73818 60.4509 9.50835C60.7711 9.27694 60.9678 8.98372 61.041 8.62392C61.0589 8.54309 61.0686 8.44482 61.0686 8.33228Z" fill="var(--fill-0, white)"/>
<path id="Vector_8" d="M72.5179 10.9H71.0061L70.9264 9.70019H70.8793C70.3965 10.6132 69.5739 11.0696 68.4181 11.0696C67.4947 11.0696 66.7258 10.7162 66.1161 10.0093C65.5065 9.30236 65.2025 8.38465 65.2025 7.25771C65.2025 6.04836 65.5325 5.06883 66.1958 4.32071C66.8379 3.62331 67.6247 3.27461 68.5611 3.27461C69.5901 3.27461 70.3103 3.61221 70.72 4.28901H70.7525V0H72.4578V8.88709C72.4578 9.61461 72.4773 10.2851 72.5179 10.9ZM70.7525 7.74906V6.50325C70.7525 6.28769 70.7362 6.11334 70.7053 5.9802C70.6094 5.58078 70.403 5.24476 70.0892 4.97373C69.7722 4.70269 69.3902 4.56638 68.9496 4.56638C68.314 4.56638 67.8166 4.81206 67.4508 5.30499C67.0883 5.79793 66.9046 6.42717 66.9046 7.1959C66.9046 7.93451 67.0785 8.53364 67.428 8.99487C67.7971 9.48622 68.2945 9.7319 68.9171 9.7319C69.4763 9.7319 69.9234 9.52743 70.2632 9.11692C70.5915 8.7381 70.7525 8.28162 70.7525 7.74906Z" fill="var(--fill-0, white)"/>
<path id="Vector_9" d="M87.089 7.10232C87.089 8.25145 86.7525 9.19294 86.0795 9.93155C85.3739 10.6908 84.4408 11.0696 83.272 11.0696C82.1487 11.0696 81.2529 10.7066 80.5832 9.97751C79.9167 9.25 79.5834 8.33228 79.5834 7.22595C79.5834 6.0689 79.9264 5.11949 80.6157 4.38247C81.305 3.64544 82.2316 3.27614 83.4004 3.27614C84.5237 3.27614 85.4292 3.6391 86.112 4.36662C86.7622 5.07352 87.089 5.98648 87.089 7.10232ZM85.3235 7.15621C85.3235 6.46674 85.1707 5.87553 84.8667 5.3826C84.5075 4.78664 84.0003 4.48866 83.337 4.48866C82.6542 4.48866 82.134 4.78664 81.7748 5.3826C81.4691 5.87553 81.318 6.47625 81.318 7.18633C81.318 7.8758 81.4708 8.46701 81.7748 8.95994C82.1438 9.5559 82.6575 9.85388 83.3208 9.85388C83.971 9.85388 84.4831 9.55115 84.8505 8.94409C85.1642 8.44165 85.3235 7.84569 85.3235 7.15621Z" fill="var(--fill-0, white)"/>
<path id="Vector_10" d="M96.2494 10.9003H94.5473V6.62082C94.5473 5.3021 94.0336 4.64274 93.0014 4.64274C92.4958 4.64274 92.0877 4.82343 91.7724 5.18639C91.457 5.54936 91.2993 5.97731 91.2993 6.46707V10.8987H89.594V5.56362C89.594 4.90743 89.5745 4.19577 89.5339 3.42546H91.0295L91.1091 4.5936H91.1563C91.3562 4.23064 91.6521 3.93107 92.039 3.69174C92.5023 3.41278 93.0176 3.27171 93.585 3.27171C94.2986 3.27171 94.8936 3.49678 95.3667 3.94851C95.9568 4.50167 96.2494 5.32746 96.2494 6.42428V10.9003V10.9003Z" fill="var(--fill-0, white)"/>
<path id="Vector_11" d="M107.714 4.67321H105.838V8.30285C105.838 9.22532 106.172 9.68656 106.832 9.68656C107.137 9.68656 107.391 9.6612 107.591 9.60889L107.635 10.869C107.298 10.9926 106.856 11.0544 106.311 11.0544C105.638 11.0544 105.115 10.8547 104.736 10.4553C104.356 10.0559 104.167 9.38382 104.167 8.44075V4.67321H103.047V3.42898H104.167V2.05954L105.837 1.56819V3.4274H107.713V4.67321H107.714Z" fill="var(--fill-0, white)"/>
<path id="Vector_12" d="M116.733 10.9H115.028V6.65224C115.028 5.31292 114.514 4.64246 113.485 4.64246C112.695 4.64246 112.155 5.03079 111.86 5.80744C111.809 5.97069 111.78 6.1704 111.78 6.40498V10.8985H110.078V0H111.78V4.50298H111.812C112.349 3.68354 113.118 3.27461 114.114 3.27461C114.82 3.27461 115.403 3.49968 115.867 3.9514C116.444 4.51408 116.733 5.35096 116.733 6.45729V10.9V10.9Z" fill="var(--fill-0, white)"/>
<path id="Vector_13" d="M126.038 6.8108C126.038 7.10878 126.015 7.35921 125.975 7.56367H120.865C120.888 8.30228 121.132 8.86496 121.605 9.25487C122.038 9.60357 122.595 9.77792 123.278 9.77792C124.034 9.77792 124.723 9.66063 125.344 9.42446L125.611 10.5783C124.884 10.8858 124.029 11.0396 123.039 11.0396C121.852 11.0396 120.917 10.6988 120.241 10.0173C119.562 9.3357 119.225 8.42116 119.225 7.27362C119.225 6.14668 119.539 5.20836 120.171 4.46024C120.831 3.6614 121.724 3.26198 122.85 3.26198C123.953 3.26198 124.79 3.6614 125.355 4.46024C125.812 5.09424 126.038 5.87882 126.038 6.8108ZM124.413 6.38126C124.426 5.88833 124.313 5.46355 124.083 5.10534C123.787 4.6441 123.336 4.41269 122.727 4.41269C122.171 4.41269 121.717 4.63776 121.371 5.08949C121.088 5.44928 120.921 5.87882 120.865 6.38126H124.413Z" fill="var(--fill-0, white)"/>
</g>
</svg>
