<svg preserveAspectRatio="none" width="100%" height="100%" overflow="visible" style="display: block;" viewBox="0 0 129.637 27.5993" fill="none" xmlns="http://www.w3.org/2000/svg">
<title>App Store</title>
<g id="Group">
<path id="Vector" d="M18.2641 21.4027H14.5722L12.5499 15.207H5.52067L3.59429 21.4027H0L6.96424 0.30957H11.2657L18.2641 21.4027ZM11.9403 12.6076L10.1115 7.09971C9.91803 6.53703 9.55551 5.21197 9.02067 3.12611H8.95565C8.74269 4.02322 8.39968 5.34828 7.92824 7.09971L6.13191 12.6076H11.9403V12.6076Z" fill="var(--fill-0, white)"/>
<path id="Vector_2" d="M36.1733 13.6101C36.1733 16.1968 35.4563 18.2415 34.0225 19.7425C32.7383 21.0786 31.1435 21.7459 29.2399 21.7459C27.1851 21.7459 25.709 21.0263 24.81 19.5871H24.745V27.5993H21.2791V11.1993C21.2791 9.57311 21.2353 7.90411 21.1507 6.19231H24.1988L24.3922 8.60309H24.4573C25.6131 6.78668 27.3672 5.88006 29.7211 5.88006C31.5613 5.88006 33.0975 6.58856 34.3265 8.00713C35.5588 9.42729 36.1733 11.2944 36.1733 13.6101ZM32.6424 13.7337C32.6424 12.2533 32.301 11.0329 31.615 10.0724C30.8655 9.07067 29.8593 8.56981 28.5978 8.56981C27.7427 8.56981 26.9656 8.84877 26.2715 9.39876C25.5757 9.95351 25.1205 10.6779 24.9076 11.575C24.8003 11.9934 24.7466 12.3358 24.7466 12.6052V15.1412C24.7466 16.2475 25.0945 17.1811 25.7903 17.9435C26.4861 18.7059 27.3899 19.0863 28.5019 19.0863C29.8072 19.0863 30.8233 18.5949 31.5499 17.6154C32.2782 16.6343 32.6424 15.3409 32.6424 13.7337Z" fill="var(--fill-0, white)"/>
<path id="Vector_3" d="M54.1161 13.6101C54.1161 16.1968 53.3992 18.2415 51.9637 19.7425C50.6811 21.0786 49.0864 21.7459 47.1827 21.7459C45.1279 21.7459 43.6518 21.0263 42.7545 19.5871H42.6895V27.5993H39.2236V11.1993C39.2236 9.57311 39.1797 7.90411 39.0952 6.19231H42.1432L42.3367 8.60309H42.4017C43.5559 6.78668 45.31 5.88006 47.6656 5.88006C49.5042 5.88006 51.0404 6.58856 52.2726 8.00713C53.5 9.42729 54.1161 11.2944 54.1161 13.6101ZM50.5852 13.7337C50.5852 12.2533 50.2422 11.0329 49.5562 10.0724C48.8067 9.07067 47.8037 8.56981 46.5406 8.56981C45.6839 8.56981 44.9085 8.84877 44.2127 9.39876C43.5169 9.95351 43.0634 10.6779 42.8504 11.575C42.7447 11.9934 42.6895 12.3358 42.6895 12.6052V15.1412C42.6895 16.2475 43.0373 17.1811 43.7299 17.9435C44.4256 18.7043 45.3295 19.0863 46.4447 19.0863C47.7501 19.0863 48.7661 18.5949 49.4928 17.6154C50.2211 16.6343 50.5852 15.3409 50.5852 13.7337Z" fill="var(--fill-0, white)"/>
<path id="Vector_4" d="M74.1766 15.487C74.1766 17.2812 73.5378 18.741 72.2551 19.868C70.8457 21.0995 68.8836 21.7145 66.3622 21.7145C64.0343 21.7145 62.168 21.277 60.7554 20.4005L61.5584 17.584C63.08 18.4811 64.7496 18.9312 66.5686 18.9312C67.874 18.9312 68.8901 18.6428 69.62 18.069C70.3466 17.4952 70.7091 16.7249 70.7091 15.7644C70.7091 14.9085 70.41 14.1873 69.8102 13.6025C69.2136 13.0176 68.217 12.4739 66.8255 11.9715C63.0378 10.5941 61.1455 8.57643 61.1455 5.92315C61.1455 4.18916 61.8088 2.76741 63.1369 1.66108C64.4602 0.553165 66.2256 0 68.4332 0C70.4019 0 72.0373 0.334435 73.3427 1.00172L72.4762 3.75645C71.257 3.10977 69.8784 2.78643 68.3357 2.78643C67.1165 2.78643 66.1639 3.07966 65.4811 3.66294C64.904 4.1844 64.6146 4.81998 64.6146 5.57286C64.6146 6.40657 64.9446 7.09604 65.6079 7.63811C66.185 8.13897 67.2335 8.68104 68.7551 9.26591C70.6165 9.99659 71.9837 10.8509 72.8631 11.8304C73.7393 12.8068 74.1766 14.0288 74.1766 15.487Z" fill="var(--fill-0, white)"/>
<path id="Vector_5" d="M85.635 8.728H81.8148V16.1125C81.8148 17.9907 82.4878 18.9291 83.8371 18.9291C84.4564 18.9291 84.9701 18.8767 85.3766 18.7721L85.4725 21.3383C84.7897 21.5871 83.8907 21.7123 82.7772 21.7123C81.4084 21.7123 80.3387 21.305 79.5665 20.4919C78.7976 19.6772 78.4107 18.3109 78.4107 16.3915V8.72483H76.1348V6.18883H78.4107V3.40398L81.8148 2.40226V6.18883H85.635V8.728Z" fill="var(--fill-0, white)"/>
<path id="Vector_6" d="M102.872 13.6721C102.872 16.01 102.186 17.9294 100.817 19.4304C99.3816 20.9758 97.4763 21.7461 95.1013 21.7461C92.8124 21.7461 90.99 21.0059 89.631 19.5255C88.2719 18.0451 87.5924 16.1764 87.5924 13.9241C87.5924 11.5672 88.2915 9.6367 89.6944 8.1357C91.0941 6.63312 92.9831 5.88183 95.3581 5.88183C97.647 5.88183 99.4889 6.62203 100.879 8.104C102.209 9.5416 102.872 11.3976 102.872 13.6721ZM99.2759 13.7815C99.2759 12.3787 98.9687 11.1757 98.346 10.1724C97.6194 8.95832 96.5806 8.35285 95.2346 8.35285C93.8414 8.35285 92.7831 8.9599 92.0564 10.1724C91.4338 11.1773 91.1266 12.3993 91.1266 13.8449C91.1266 15.2476 91.4338 16.4506 92.0564 17.4523C92.8059 18.6664 93.8528 19.2719 95.2037 19.2719C96.5269 19.2719 97.5657 18.6538 98.3152 17.4206C98.954 16.3983 99.2759 15.1826 99.2759 13.7815Z" fill="var(--fill-0, white)"/>
<path id="Vector_7" d="M114.138 9.16418C113.795 9.10237 113.429 9.07067 113.045 9.07067C111.826 9.07067 110.883 9.51922 110.22 10.4179C109.643 11.2104 109.353 12.2121 109.353 13.4215V21.402H105.889L105.922 10.9822C105.922 9.22917 105.878 7.63307 105.792 6.19389H108.81L108.937 9.10395H109.033C109.399 8.10382 109.976 7.29864 110.766 6.69475C111.538 6.1511 112.372 5.88006 113.271 5.88006C113.591 5.88006 113.881 5.90225 114.138 5.94188V9.16418Z" fill="var(--fill-0, white)"/>
<path id="Vector_8" d="M129.637 13.0778C129.637 13.6832 129.597 14.1936 129.511 14.6105H119.113C119.154 16.113 119.656 17.2622 120.622 18.0547C121.498 18.7632 122.631 19.1182 124.022 19.1182C125.562 19.1182 126.966 18.8789 128.23 18.3986L128.773 20.7444C127.296 21.3721 125.554 21.6843 123.543 21.6843C121.124 21.6843 119.225 20.9901 117.843 19.6032C116.465 18.2163 115.774 16.354 115.774 14.0177C115.774 11.7242 116.416 9.81426 117.702 8.29107C119.048 6.66486 120.867 5.85176 123.156 5.85176C125.404 5.85176 127.106 6.66486 128.262 8.29107C129.177 9.58285 129.637 11.1805 129.637 13.0778ZM126.332 12.2013C126.355 11.1995 126.129 10.3341 125.659 9.60345C125.06 8.66355 124.138 8.19439 122.897 8.19439C121.764 8.19439 120.843 8.65245 120.139 9.57175C119.562 10.3024 119.219 11.1789 119.113 12.1997H126.332V12.2013Z" fill="var(--fill-0, white)"/>
</g>
</svg>
