<svg preserveAspectRatio="none" width="100%" height="100%" overflow="visible" style="display: block;" viewBox="0 0 33.7419 40.4358" fill="none" xmlns="http://www.w3.org/2000/svg">
<title>Apple logo</title>
<g id="Group">
<g id="Vector">
<path d="M28.1823 21.5037C28.1351 16.3952 32.4723 13.9099 32.6706 13.7942C30.2143 10.3025 26.4071 9.82541 25.0692 9.78737C21.8715 9.45927 18.7698 11.6529 17.1409 11.6529C15.4795 11.6529 12.9711 9.81907 10.2677 9.87296C6.78883 9.92526 3.5343 11.8891 1.74934 14.9386C-1.93436 21.1566 0.812976 30.2941 4.34224 35.3201C6.10769 37.7816 8.17062 40.53 10.8708 40.4333C13.5125 40.3271 14.4992 38.7913 17.6871 38.7913C20.8457 38.7913 21.7724 40.4333 24.5262 40.3715C27.3613 40.3271 29.1463 37.8989 30.8499 35.4152C32.8901 32.5939 33.7094 29.8154 33.7419 29.6728C33.6753 29.6506 28.2359 27.6265 28.1823 21.5037Z" fill="white"/>
<path d="M22.9802 6.48106C24.401 4.74866 25.3731 2.39176 25.1033 0C23.0469 0.0887599 20.4751 1.38687 18.9941 3.08124C17.6839 4.57431 16.5134 7.02155 16.8158 9.32296C19.1258 9.49097 21.4976 8.18652 22.9802 6.48106Z" fill="white"/>
</g>
</g>
</svg>
