<svg width="574" height="160" viewBox="0 0 574 160" fill="none" xmlns="http://www.w3.org/2000/svg">
<path d="M79.9619 33.4424C82.5062 33.4424 84.8915 33.5439 87.1179 33.7725C89.3442 34.001 91.597 34.3057 93.8233 34.7374C96.0496 35.1691 98.4085 35.7277 100.873 36.4641C102.146 36.845 103.497 37.2513 104.902 37.683C107.314 38.4447 109.991 37.5052 111.263 35.3976C112.986 32.5536 114.735 29.4303 116.219 24.7834C117.703 20.1365 118.26 15.8451 118.419 11.2744C118.498 9.06524 117.12 6.98303 114.92 6.22124C108.4 3.93589 102.411 2.36153 96.9508 1.49818C90.5368 0.507857 83.7254 0 76.5694 0C64.4837 0 53.6701 2.00604 44.1023 6.0181C34.5609 10.0302 26.5303 15.5912 20.0368 22.752C13.5434 29.9128 8.58722 38.3686 5.14173 48.1702C1.69624 57.9718 0 68.586 0 80.0382C0 91.4904 1.64323 102.054 4.9297 111.779C8.21617 121.505 13.0929 129.859 19.5863 136.867C26.0797 143.876 34.1368 149.335 43.7577 153.271C53.3786 157.207 64.5367 159.188 77.232 159.188C80.81 159.188 84.282 159.086 87.6479 158.858C91.0139 158.654 94.4064 158.273 97.8254 157.791C101.244 157.283 104.849 156.547 108.559 155.531C109.911 155.176 111.316 154.769 112.774 154.312C115.689 153.398 117.253 150.3 116.139 147.558C113.357 140.854 111.157 133.693 109.62 126.177C109.01 123.206 105.83 121.429 102.808 122.292C99.9722 123.104 97.2953 123.79 95.2545 124.222C91.0139 125.085 86.4818 125.517 81.7111 125.517C55.1278 125.517 41.8494 110.357 41.8494 80.0382C41.8494 64.5994 45.1624 52.9694 51.8149 45.1738C58.4673 37.3782 67.8231 33.4931 79.9088 33.4931L79.9619 33.4424Z" fill="#056EB9"/>
<path d="M572.429 145.806C568.48 140.194 563.126 129.149 563.1 110.536C563.02 74.4525 562.994 74.9857 560.609 69.1708C558.223 63.3812 554.831 58.6327 550.431 54.9C546.032 51.1926 540.678 48.4248 534.423 46.6473C528.141 44.8698 521.145 43.9811 513.379 43.9811C507.707 43.9811 501.32 44.5397 494.243 45.6824C488.386 46.6219 482.502 47.9678 476.618 49.6945C474.657 50.2785 473.332 52.1322 473.57 54.0874C473.835 56.3474 473.915 59.8516 473.252 64.8794C472.908 67.4948 471.874 70.7197 470.708 73.7161C469.409 77.1187 472.881 80.3944 476.406 79.0486C481.362 77.1949 487.538 75.1381 494.8 73.8684C499.57 73.0305 503.758 72.675 507.336 72.675C510.039 72.675 512.637 72.8527 515.181 73.2082C517.725 73.5637 520.031 74.2239 522.125 75.1381C524.219 76.0522 525.942 77.3727 527.267 79.0994C527.267 79.0994 527.267 79.1248 527.32 79.1501C529.361 81.791 527.055 85.5237 523.636 85.5237H515.87C510.198 85.5237 504.368 86.057 498.404 87.1235C492.441 88.19 486.981 90.0945 482.051 92.8115C477.122 95.5285 473.093 99.1851 469.966 103.756C466.838 108.326 465.248 114.116 465.248 121.124C465.248 128.133 466.547 134.303 469.171 139.255C471.794 144.181 475.399 148.168 480.037 151.164C484.675 154.161 490.215 156.344 496.708 157.716C503.201 159.087 510.331 159.747 518.097 159.747C527.055 159.747 535.51 158.706 543.62 157.385C549.875 156.37 561.748 153.957 569.832 152.129C572.8 151.469 574.179 148.168 572.456 145.73L572.429 145.806ZM527.85 132.196C526.445 132.45 525.067 132.653 523.874 132.78C521.33 133.059 519.395 133.211 518.07 133.211C516.135 133.211 513.988 133.085 511.683 132.78C509.377 132.5 507.204 131.916 505.189 131.053C503.175 130.19 501.505 128.945 500.154 127.295C498.802 125.644 498.139 123.41 498.139 120.54C498.139 116.681 499.941 113.684 503.519 111.526C507.098 109.368 511.497 108.301 516.745 108.301H525.332C527.638 108.301 529.573 110.028 529.705 112.237C529.97 116.249 530.474 122.521 531.375 127.295C531.799 129.58 530.262 131.764 527.876 132.17L527.85 132.196Z" fill="#056EB9"/>
<path d="M335.513 114.09C334.373 112.033 334.824 109.545 336.652 107.996C336.944 107.742 337.262 107.463 337.606 107.183C339.25 105.761 340.813 103.908 342.298 101.572C343.782 99.2354 345.054 96.4422 346.088 93.1919C347.121 89.9416 347.651 86.1327 347.651 81.7398C347.651 70.1606 343.146 61.1462 334.108 54.7218C325.097 48.2974 311.553 45.0725 293.504 45.0725C286.799 45.0725 279.669 45.2503 272.142 45.9105C266.417 46.4183 258.572 47.3579 250.648 48.5005C247.229 49.0084 245.135 52.3095 246.38 55.3312C252.158 69.1703 255.445 85.0154 255.445 101.851C255.445 118.686 251.893 135.776 245.691 149.996C244.366 153.068 246.433 156.471 249.932 156.953C253.006 157.385 255.339 157.69 256.743 157.842C259.712 158.198 266.364 158.655 268.882 158.655C271.267 158.655 274.024 158.553 277.151 158.35C278.98 158.223 280.941 158.02 283.035 157.715C285.686 157.334 287.673 155.176 287.673 152.662V78.4133C287.673 75.6709 289.979 73.4109 292.895 73.3093C294.193 73.2586 295.518 73.2586 296.579 73.2586C301.641 73.2586 305.351 74.4266 307.657 76.7628C309.963 79.0989 311.129 82.0953 311.129 85.7772C311.129 89.4592 310.149 92.8872 308.214 96.0613C306.279 99.2354 300.263 102.232 295.041 105.076L291.914 106.777L315.582 154.439C316.35 155.963 317.835 157.055 319.61 157.334C321.572 157.639 323.824 157.893 326.369 158.071C330.238 158.35 334.267 158.705 338.455 158.705C341.874 158.705 345.425 158.35 349.083 158.071C349.825 158.02 350.54 157.944 351.256 157.867C355.072 157.487 357.299 153.627 355.523 150.427L335.46 114.09H335.513Z" fill="#056EB9"/>
<path d="M224.328 59.9527C219.478 54.7979 213.462 50.8367 206.306 48.0435C199.15 45.2502 190.775 43.8536 181.233 43.8536C171.692 43.8536 163.555 45.2502 156.373 48.0435C149.217 50.8367 143.2 54.7979 138.35 59.9527C133.5 65.1074 129.842 71.2779 127.378 78.5149C124.913 85.7264 123.667 93.7252 123.667 102.435C123.667 111.145 124.886 118.839 127.378 125.923C129.842 133.008 133.5 139.077 138.35 144.155C143.2 149.234 149.217 153.119 156.373 155.836C163.529 158.553 171.824 159.924 181.233 159.924C190.642 159.924 199.15 158.553 206.306 155.836C213.462 153.119 219.478 149.234 224.328 144.155C229.178 139.077 232.836 133.008 235.301 125.923C237.766 118.839 239.011 111.018 239.011 102.435C239.011 93.8521 237.766 85.7518 235.301 78.5149C232.836 71.3033 229.178 65.1074 224.328 59.9527ZM195.89 123.232C192.683 128.107 187.78 130.519 181.233 130.519C174.687 130.519 169.81 128.107 166.683 123.232C163.555 118.382 161.965 111.449 161.965 102.435C161.965 93.4204 163.529 86.2851 166.683 81.4096C169.81 76.5596 174.66 74.1219 181.233 74.1219C187.806 74.1219 192.683 76.5596 195.89 81.4096C199.097 86.2597 200.713 93.2681 200.713 102.435C200.713 111.602 199.097 118.382 195.89 123.232Z" fill="#056EB9"/>
<path d="M450.697 127.091L450.485 126.659C448.842 124.323 445.556 125.974 442.932 126.583C419.794 133.515 399.333 126.837 400.632 99.2351C401.453 79.6826 417.515 72.2679 435.749 75.2389C440.626 76.1276 448.895 79.5557 451.864 76.1022C456.396 70.3381 457.774 62.0092 458.171 55.1785C458.118 53.5026 458.145 51.8521 456.396 50.684C442.349 42.5329 423.717 43.1423 407.761 44.7421C367.82 50.1 353.349 91.7188 364.984 125.263C376.725 161.143 424.061 166.044 456.396 154.312C460 152.916 459.841 150.503 457.906 148.065C453.003 142.403 451.943 134.43 450.697 127.066V127.091Z" fill="#056EB9"/>
</svg>
