<svg width="512" height="512" viewBox="0 0 512 512" fill="none" xmlns="http://www.w3.org/2000/svg">
<rect width="512" height="512" rx="256" fill="#056EB9"/>
<path d="M264.988 75.9731C290.822 67.1154 295.912 89.6557 299.927 113.517C301.318 121.441 302.691 129.771 303.977 138.488C313.838 203.292 316.621 275.863 313.98 342.605C313.592 352.96 313.099 363.226 312.482 373.545C310.686 393.603 312.201 411.935 298.73 425.231V425.249L298.535 425.407C282.052 438.508 259.476 433.508 236.795 430.655C178.048 420.828 88.9769 387.722 95.3164 319.906C103.664 211.587 197.437 95.7846 264.988 75.9731ZM257.84 251.931C256.255 242.51 254.247 233.634 244.051 237.121C217.407 244.939 180.426 290.62 177.133 333.324C174.632 360.073 209.765 373.122 232.939 376.997C241.885 378.124 250.796 380.096 257.294 374.936L257.364 374.866L257.382 374.883C262.7 369.636 262.101 362.416 262.806 354.492C263.052 350.424 263.246 346.373 263.387 342.288C264.426 315.961 263.334 287.345 259.442 261.775C258.932 258.341 258.403 255.048 257.84 251.931Z" fill="white"/>
<path d="M366.274 199.277C385.57 199.277 401.212 183.635 401.212 164.339C401.212 145.043 385.57 129.401 366.274 129.401C346.978 129.401 331.336 145.043 331.336 164.339C331.336 183.635 346.978 199.277 366.274 199.277Z" fill="white"/>
<path d="M346.057 233.705C340.193 243.918 343.046 264.011 342.764 277.835C343.134 306.046 342.694 335.138 341.655 362.909C341.303 372.101 340.898 381.241 340.387 390.398C339.859 408.448 334.505 434.299 354.492 433.982C372.807 432.063 395.753 416.091 405.28 397.072C423.576 358.647 416.673 271.601 405.667 230.729C402.251 218.384 394.132 214.739 384.288 216.059C372.613 217.909 353.594 221.448 346.163 233.493L346.04 233.705H346.057Z" fill="white"/>
</svg>
