<svg width="704" height="128" viewBox="0 0 704 128" fill="none" xmlns="http://www.w3.org/2000/svg">
<g clip-path="url(#clip0_13_12)">
<path d="M594.341 128.14L636.309 63.64L594.685 0H621.517L655.573 52.116H643.189L677.073 0H703.905L662.453 63.64L704.249 128.14H677.417L643.189 75.336H655.573L621.173 128.14H594.341Z" fill="white"/>
<path d="M471.892 128.14L516.096 0H546.368L590.572 128.14H565.116L556 100.62H506.464L497.176 128.14H471.892ZM513.172 79.98H549.292L527.964 16.168H534.5L513.172 79.98Z" fill="white"/>
<g clip-path="url(#clip1_13_12)">
<path d="M60.961 26.7879C62.9007 26.7879 64.7192 26.8688 66.4164 27.0509C68.1136 27.2331 69.8315 27.4758 71.5287 27.8198C73.2259 28.1638 75.0242 28.6089 76.9033 29.1957C77.8734 29.4992 78.9036 29.823 79.9748 30.1669C81.8135 30.774 83.8543 30.0253 84.8239 28.3459C86.1371 26.0797 87.471 23.591 88.6023 19.8882C89.7341 16.1853 90.1586 12.7658 90.2793 9.12374C90.3399 7.36336 89.2895 5.70423 87.6125 5.09719C82.6416 3.27614 78.075 2.02164 73.9131 1.33369C69.0231 0.54457 63.8304 0.139893 58.3745 0.139893C49.1607 0.139893 40.9168 1.73837 33.6225 4.93532C26.3484 8.13229 20.226 12.5635 15.2756 18.2695C10.3252 23.9754 6.5467 30.7132 3.91993 38.5235C1.29317 46.3338 0 54.7916 0 63.9173C0 73.0425 1.25276 81.4598 3.75828 89.2093C6.26379 96.9588 9.98168 103.616 14.9321 109.2C19.8825 114.785 26.0251 119.135 33.3598 122.272C40.6945 125.408 49.2011 126.986 58.8797 126.986C61.6077 126.986 64.2543 126.905 66.8206 126.723C69.3869 126.561 71.9728 126.258 74.5795 125.873C77.1862 125.468 79.9344 124.882 82.7629 124.072C83.7937 123.789 84.8643 123.465 85.9759 123.101C88.1981 122.373 89.3905 119.904 88.5417 117.719C86.42 112.377 84.743 106.671 83.5713 100.682C83.1065 98.3148 80.6817 96.898 78.3781 97.5862C76.2161 98.2338 74.1753 98.7798 72.6196 99.1238C69.3869 99.812 65.9313 100.156 62.2944 100.156C42.0281 100.156 31.905 88.0764 31.905 63.9173C31.905 51.6148 34.4307 42.3477 39.5023 36.136C44.574 29.9241 51.7067 26.8284 60.9205 26.8284L60.961 26.7879Z" fill="white"/>
<path d="M436.405 116.323C433.394 111.851 429.312 103.05 429.292 88.218C429.231 59.4656 429.211 59.8906 427.393 55.2569C425.574 50.6437 422.988 46.86 419.634 43.8856C416.28 40.9314 412.198 38.726 407.43 37.3096C402.641 35.8932 397.306 35.1851 391.386 35.1851C387.062 35.1851 382.193 35.6302 376.797 36.5407C372.332 37.2893 367.847 38.3618 363.361 39.7376C361.866 40.203 360.855 41.6801 361.037 43.2381C361.239 45.0389 361.3 47.8312 360.795 51.8375C360.532 53.9216 359.744 56.4915 358.855 58.8787C357.865 61.5902 360.512 64.2005 363.199 63.1278C366.978 61.6509 371.686 60.0121 377.222 59.0001C380.859 58.3328 384.052 58.0494 386.779 58.0494C388.84 58.0494 390.82 58.1911 392.76 58.4744C394.7 58.7572 396.458 59.2835 398.054 60.0121C399.65 60.7401 400.964 61.7926 401.974 63.1683C401.974 63.1683 401.974 63.1886 402.015 63.2088C403.57 65.3131 401.812 68.2878 399.206 68.2878H393.285C388.961 68.2878 384.517 68.7128 379.97 69.5623C375.424 70.4124 371.261 71.9298 367.503 74.0948C363.745 76.2599 360.673 79.1732 358.289 82.8158C355.905 86.4578 354.692 91.0712 354.692 96.6556C354.692 102.24 355.683 107.157 357.683 111.103C359.683 115.028 362.431 118.204 365.968 120.592C369.503 122.98 373.726 124.72 378.677 125.812C383.627 126.905 389.062 127.431 394.983 127.431C401.812 127.431 408.258 126.602 414.441 125.55C419.209 124.74 428.262 122.818 434.425 121.361C436.688 120.835 437.738 118.204 436.425 116.262L436.405 116.323ZM402.419 105.477C401.348 105.68 400.297 105.842 399.388 105.943C397.448 106.165 395.973 106.287 394.962 106.287C393.488 106.287 391.851 106.186 390.093 105.943C388.335 105.72 386.679 105.255 385.143 104.567C383.607 103.879 382.334 102.888 381.303 101.572C380.273 100.257 379.768 98.4766 379.768 96.1901C379.768 93.1148 381.142 90.7272 383.87 89.0074C386.598 87.287 389.952 86.4375 393.952 86.4375H400.499C402.257 86.4375 403.732 87.8132 403.833 89.5735C404.035 92.7708 404.419 97.7682 405.106 101.572C405.429 103.393 404.257 105.134 402.439 105.457L402.419 105.477Z" fill="white"/>
<path d="M255.785 91.0505C254.917 89.4117 255.26 87.4288 256.654 86.1947C256.877 85.9923 257.119 85.7697 257.382 85.5471C258.635 84.4137 259.827 82.9367 260.958 81.0753C262.09 79.2138 263.06 76.988 263.848 74.3979C264.636 71.8084 265.04 68.773 265.04 65.2727C265.04 56.0458 261.605 48.863 254.715 43.7438C247.845 38.6247 237.519 36.0549 223.759 36.0549C218.648 36.0549 213.212 36.1966 207.473 36.7227C203.109 37.1273 197.128 37.876 191.086 38.7865C188.48 39.1912 186.884 41.8216 187.834 44.2294C192.239 55.257 194.744 67.8831 194.744 81.2979C194.744 94.7127 192.036 108.331 187.308 119.661C186.298 122.11 187.874 124.821 190.541 125.205C192.885 125.549 194.663 125.792 195.734 125.914C197.997 126.197 203.068 126.561 204.988 126.561C206.807 126.561 208.908 126.48 211.292 126.318C212.687 126.217 214.182 126.055 215.778 125.812C217.799 125.509 219.314 123.789 219.314 121.786V62.6219C219.314 60.4366 221.072 58.6359 223.294 58.5549C224.285 58.5144 225.295 58.5144 226.103 58.5144C229.963 58.5144 232.792 59.4455 234.549 61.3069C236.307 63.1684 237.197 65.5561 237.197 68.4897C237.197 71.4238 236.449 74.1551 234.974 76.6844C233.498 79.2138 228.912 81.6015 224.932 83.8677L222.547 85.2232L240.591 123.202C241.177 124.416 242.308 125.286 243.662 125.509C245.158 125.752 246.875 125.954 248.815 126.096C251.764 126.318 254.836 126.602 258.028 126.602C260.635 126.602 263.343 126.318 266.131 126.096C266.697 126.055 267.242 125.995 267.788 125.934C270.697 125.63 272.395 122.555 271.041 120.005L255.745 91.0505H255.785Z" fill="white"/>
<path d="M171.022 47.912C167.325 43.8045 162.738 40.6481 157.283 38.4224C151.827 36.1966 145.441 35.0837 138.168 35.0837C130.894 35.0837 124.691 36.1966 119.214 38.4224C113.759 40.6481 109.172 43.8045 105.475 47.912C101.777 52.0195 98.9883 56.9363 97.1092 62.7029C95.2301 68.4492 94.2808 74.8229 94.2808 81.7634C94.2808 88.7033 95.2099 94.8341 97.1092 100.48C98.9883 106.125 101.777 110.96 105.475 115.007C109.172 119.054 113.759 122.15 119.214 124.315C124.67 126.48 130.995 127.573 138.168 127.573C145.341 127.573 151.827 126.48 157.283 124.315C162.738 122.15 167.325 119.054 171.022 115.007C174.72 110.96 177.509 106.125 179.388 100.48C181.267 94.8341 182.216 88.6021 182.216 81.7634C182.216 74.9241 181.267 68.4694 179.388 62.7029C177.509 56.9565 174.72 52.0195 171.022 47.912ZM149.342 98.335C146.897 102.22 143.159 104.142 138.168 104.142C133.177 104.142 129.459 102.22 127.075 98.335C124.691 94.4704 123.478 88.9461 123.478 81.7634C123.478 74.5801 124.67 68.8944 127.075 65.0096C129.459 61.145 133.157 59.2025 138.168 59.2025C143.179 59.2025 146.897 61.145 149.342 65.0096C151.786 68.8742 153.019 74.4586 153.019 81.7634C153.019 89.0676 151.786 94.4704 149.342 98.335Z" fill="white"/>
<path d="M343.6 101.41L343.439 101.066C342.186 99.2047 339.681 100.52 337.68 101.005C320.04 106.53 304.441 101.208 305.432 79.2137C306.058 63.6338 318.302 57.7256 332.204 60.093C335.922 60.8008 342.226 63.5326 344.489 60.7806C347.945 56.1874 348.995 49.5509 349.298 44.108C349.258 42.7726 349.278 41.4574 347.945 40.5266C337.235 34.0316 323.031 34.5171 310.867 35.7919C280.417 40.0612 269.384 73.2245 278.255 99.9535C287.206 128.544 323.294 132.449 347.945 123.101C350.692 121.988 350.571 120.066 349.096 118.123C345.358 113.611 344.55 107.258 343.6 101.39V101.41Z" fill="white"/>
</g>
</g>
<defs>
<clipPath id="clip0_13_12">
<rect width="704" height="128" fill="white"/>
</clipPath>
<clipPath id="clip1_13_12">
<rect width="437" height="128" fill="white" transform="translate(0 0.139893)"/>
</clipPath>
</defs>
</svg>
